<svg width="120" height="110" viewBox="0 0 120 110" fill="none" xmlns="http://www.w3.org/2000/svg">
  <defs>
    <linearGradient id="bodyGradient" x1="36" y1="8" x2="86" y2="96" gradientUnits="userSpaceOnUse">
      <stop offset="0" stop-color="#F7F7F7"/>
      <stop offset="1" stop-color="#D9D9D9"/>
    </linearGradient>
    <linearGradient id="bodyShadow" x1="68" y1="62" x2="102" y2="96" gradientUnits="userSpaceOnUse">
      <stop offset="0" stop-color="#CCCCCC" stop-opacity="0"/>
      <stop offset="1" stop-color="#B3B3B3" stop-opacity="0.65"/>
    </linearGradient>
    <linearGradient id="tongueGradient" x1="61" y1="60" x2="71" y2="82" gradientUnits="userSpaceOnUse">
      <stop offset="0" stop-color="#FF69B5"/>
      <stop offset="1" stop-color="#DD007E"/>
    </linearGradient>
  </defs>
  <path d="M28.5 47c-4.8-3.8-5.4-10.9-1-15.4 4-4.1 10.7-4.3 15-0.6l5.2 4.5c1.8 1.5 1.2 4.3-1 5.1l-12.5 4.6c-1.9.7-4 .3-5.7-1.2Z" fill="#E8E8E8"/>
  <path d="M91.6 35.4c4.2-4.5 11-4.3 15 .6 4.4 4.5 3.8 11.6-1 15.4-1.7 1.3-3.8 1.8-5.7 1.1l-12.5-4.5c-2.2-.8-2.8-3.6-1-5.1l5.2-4.5Z" fill="#E8E8E8"/>
  <path d="M59.5 6c-19.1 0-34.6 15.6-34.6 34.8v18.8c0 16 13.8 29 30.8 29h7c17 0 30.8-13 30.8-29V38.8C93.5 21.6 78.5 6 59.5 6Z" fill="url(#bodyGradient)"/>
  <path d="M84 84c-5.9 5.6-14.6 9-24.3 9-9.7 0-18.5-3.5-24.4-9.2" stroke="#E6E6E6" stroke-width="3" stroke-linecap="round"/>
  <path d="M60.2 8.8c16.4 0 29.7 13.4 29.7 29.9v20.1c0 7-3.3 13.6-8.6 18" stroke="#F5F5F5" stroke-width="3" stroke-linecap="round" stroke-opacity="0.7"/>
  <path d="M44.5 40.5c2.6-2.2 6.3-2.2 8.9 0" stroke="#5B3B13" stroke-width="3" stroke-linecap="round" stroke-linejoin="round"/>
  <circle cx="73" cy="41" r="6" fill="#3B2A16"/>
  <circle cx="74.8" cy="38.9" r="1.8" fill="#FFFFFF" fill-opacity="0.85"/>
  <path d="M48.5 57c0-2 1.6-3.6 3.6-3.6h16.7c2 0 3.6 1.6 3.6 3.6 0 7.4-6 13.4-13.4 13.4H62c-7.4 0-13.5-6-13.5-13.4Z" fill="#2A1F1F"/>
  <path d="M55.5 58.5v12.4c0 6.8 5.5 12.3 12.3 12.3 4 0 7.4-2 9.4-4.9V58.5H55.5Z" fill="url(#tongueGradient)"/>
  <path d="M58 60.5c-2 0-3.6 1.6-3.6 3.6 0 3.6 1.8 6.8 4.8 8.9 3.1 2.3 7.3 3.5 11.1 3.5 1.9 0 5-.4 6-2.6.6-1.2.1-2.7-1.1-3.4-5.3-3.1-10.6-8.2-13.8-9.3H58Z" fill="#1C1616" opacity="0.25"/>
  <path d="M60 6c-19.1 0-34.6 15.6-34.6 34.8v18.8c0 16 13.8 29 30.8 29h7c10.9 0 20.4-5.3 26-13.3C97 75.5 100 68 100 59.6V39C100 19.8 84.8 6 68.5 6H60Z" fill="url(#bodyShadow)"/>
</svg>
